<svg width="380" height="472" viewBox="0 0 380 472" fill="none" xmlns="http://www.w3.org/2000/svg">
<g clip-path="url(#clip0_6_132)">
<path d="M99.6698 307.394C98.8333 307.394 98.1531 308.076 98.1531 308.915V321.082C98.1531 321.921 98.8333 322.603 99.6698 322.603C100.506 322.603 101.186 321.921 101.186 321.082V308.915C101.186 308.076 100.506 307.394 99.6698 307.394Z" fill="#3F3D56"/>
<path d="M272.189 172H135.757C120.285 172 107.743 184.577 107.743 200.092V441.85C107.743 457.364 120.285 469.941 135.757 469.941H272.189C287.66 469.941 300.203 457.364 300.203 441.85V200.092C300.203 184.577 287.66 172 272.189 172Z" fill="white"/>
<path d="M272.189 472H135.757C119.945 472 107.08 459.1 107.08 443.243V201.485C107.08 185.629 119.945 172.729 135.757 172.729H272.189C288.002 172.729 300.866 185.629 300.866 201.485V443.243C300.866 459.1 288.002 472 272.189 472ZM135.757 174.059C120.676 174.059 108.407 186.362 108.407 201.485V443.243C108.407 458.366 120.676 470.67 135.757 470.67H272.189C287.27 470.67 299.539 458.366 299.539 443.243V201.485C299.539 186.362 287.27 174.059 272.189 174.059H135.757Z" fill="#3F3D56"/>
<path d="M282.072 230.908H227.233C224.907 230.908 223.015 229.011 223.015 226.678C223.015 224.346 224.907 222.448 227.233 222.448H282.072C284.398 222.448 286.29 224.346 286.29 226.678C286.29 229.011 284.398 230.908 282.072 230.908Z" fill="#E6E6E6"/>
<path d="M230.626 264.174H177.32C175.977 264.174 174.883 263.077 174.883 261.729C174.883 260.382 175.977 259.286 177.32 259.286H230.626C231.97 259.286 233.063 260.382 233.063 261.729C233.063 263.077 231.97 264.174 230.626 264.174V264.174Z" fill="#8257E5"/>
<path d="M155.346 182.479H124.789C124.709 182.479 124.645 182.544 124.645 182.623V186.3C124.645 186.38 124.709 186.445 124.789 186.445H155.346C155.425 186.445 155.49 186.38 155.49 186.3V182.623C155.49 182.544 155.425 182.479 155.346 182.479Z" fill="#E6E6E6"/>
<path d="M257.793 186.445C259.54 186.445 260.957 185.024 260.957 183.272C260.957 181.52 259.54 180.1 257.793 180.1C256.046 180.1 254.63 181.52 254.63 183.272C254.63 185.024 256.046 186.445 257.793 186.445Z" fill="#E6E6E6"/>
<path d="M266.493 186.445C268.24 186.445 269.657 185.024 269.657 183.272C269.657 181.52 268.24 180.1 266.493 180.1C264.746 180.1 263.33 181.52 263.33 183.272C263.33 185.024 264.746 186.445 266.493 186.445Z" fill="#E6E6E6"/>
<path d="M275.193 186.445C276.94 186.445 278.356 185.024 278.356 183.272C278.356 181.52 276.94 180.1 275.193 180.1C273.446 180.1 272.029 181.52 272.029 183.272C272.029 185.024 273.446 186.445 275.193 186.445Z" fill="#E6E6E6"/>
<path d="M135.425 277.256C135.425 277.695 135.776 278.048 136.214 278.048H271.732C272.17 278.048 272.521 277.695 272.521 277.256C272.521 276.817 272.17 276.465 271.732 276.465H136.214C135.776 276.465 135.425 276.817 135.425 277.256Z" fill="#3F3D56"/>
<path d="M242.904 389.216C242.904 389.655 243.255 390.008 243.693 390.008H379.211C379.648 390.008 380 389.655 380 389.216C380 388.777 379.648 388.424 379.211 388.424H243.693C243.255 388.424 242.904 388.777 242.904 389.216Z" fill="#3F3D56"/>
<path d="M258.736 339.474H177.41C176.066 339.474 174.972 338.377 174.972 337.03C174.972 335.682 176.066 334.586 177.41 334.586H258.736C260.08 334.586 261.173 335.682 261.173 337.03C261.173 338.377 260.08 339.474 258.736 339.474Z" fill="#8257E5"/>
<path d="M152.743 342.715C156.04 342.715 158.713 340.034 158.713 336.728C158.713 333.421 156.04 330.741 152.743 330.741C149.446 330.741 146.773 333.421 146.773 336.728C146.773 340.034 149.446 342.715 152.743 342.715Z" fill="#8257E5"/>
<path d="M152.08 346.706V345.375C157.018 345.375 161.035 341.347 161.035 336.395C161.035 331.443 157.018 327.415 152.08 327.415V326.084C157.749 326.084 162.362 330.71 162.362 336.395C162.362 342.081 157.749 346.706 152.08 346.706Z" fill="#3F3D56"/>
<path d="M80.971 312.583C83.4063 310.098 86.6591 309.344 88.2361 310.898C89.813 312.453 89.1169 315.727 86.6804 318.213C85.7207 319.219 84.5346 319.98 83.2214 320.433L72.7702 330.832L68.0082 325.81L78.8168 316.091C79.2452 314.766 79.9839 313.563 80.971 312.583H80.971Z" fill="#FFB6B6"/>
<path d="M47.5468 303.999L58.5046 328.376L76.0025 318.878L82.2647 322.211C82.2647 322.211 67.9605 346.192 58.1665 343.462C48.3724 340.732 30.9807 315.979 34.1142 308.34C37.2478 300.7 47.5468 303.999 47.5468 303.999Z" fill="#E6E6E6"/>
<path d="M0 471.184C0 471.491 0.245548 471.737 0.55132 471.737H338.41C338.716 471.737 338.962 471.491 338.962 471.184C338.962 470.877 338.716 470.631 338.41 470.631H0.55132C0.245548 470.631 0 470.877 0 471.184Z" fill="#3F3D56"/>
<path d="M101.142 352.008C117.747 352.008 131.208 338.794 131.208 322.494C131.208 306.193 117.747 292.979 101.142 292.979C84.5376 292.979 71.0767 306.193 71.0767 322.494C71.0767 338.794 84.5376 352.008 101.142 352.008Z" fill="#8257E5"/>
<path d="M42.742 466.462L50.732 466.461L54.5329 435.556L42.7404 435.557L42.742 466.462Z" fill="#FFB6B6"/>
<path d="M70.1167 466.28C70.3655 466.7 70.4967 468.056 70.4967 468.545C70.4967 470.047 69.2826 471.264 67.7849 471.264H43.0408C42.0191 471.264 41.1908 470.434 41.1908 469.409V468.376C41.1908 468.376 39.9667 465.271 42.4868 461.444C42.4868 461.444 45.619 464.441 50.2993 459.748L51.6795 457.24L61.6701 464.567L67.2078 465.251C68.4193 465.4 69.4934 465.228 70.1166 466.28H70.1167Z" fill="#2F2E41"/>
<path d="M48.788 305.563L48.9496 294.757L42.304 290.603L35.0776 299.467L48.788 305.563Z" fill="#FFB6B6"/>
<path opacity="0.1" d="M48.788 305.563L49.2181 295.026L42.304 290.603L44.6531 303.643L48.788 305.563Z" fill="black"/>
<path d="M64.9275 377.023L53.9176 452.153H40.1042L41.9409 409.267L42.9077 386.717L40.1042 375.983C40.1042 375.983 38.8259 373.597 37.7491 370.705C36.5353 367.442 35.5767 363.529 36.9999 361.674C37.5235 360.99 38.885 360.483 40.7352 360.106C41.8657 359.875 43.1816 359.694 44.6021 359.554C52.7709 358.744 64.3904 359.25 64.3904 359.25L64.6858 369.025L64.8496 374.483L64.9275 377.023L64.9275 377.023Z" fill="#2F2E41"/>
<path d="M28.6672 462.788L36.5724 463.952L44.8157 433.931L33.1485 432.211L28.6672 462.788Z" fill="#FFB6B6"/>
<path d="M55.7773 466.601C55.9624 467.053 55.8956 468.413 55.8247 468.897C55.6069 470.383 54.2291 471.41 52.7473 471.192L28.2664 467.583C27.2555 467.434 26.5565 466.491 26.7051 465.477L26.8549 464.455C26.8549 464.455 26.0943 461.205 29.1427 457.786C29.1427 457.786 31.8069 461.208 37.1182 457.247L38.8474 454.968L47.669 463.674L53.0486 465.158C54.2255 465.483 55.3133 465.468 55.7772 466.601H55.7773L55.7773 466.601Z" fill="#2F2E41"/>
<path d="M65.1007 364.493L63.5906 377.534L55.3552 405.016L41.7984 450.26L28.1334 448.246L40.3976 383.916L39.1832 372.885C39.1832 372.885 38.7878 371.789 38.3345 370.183C37.4346 367.008 36.3061 361.836 37.5477 359.198C37.7153 358.839 37.9258 358.528 38.1862 358.276C38.6745 357.801 39.667 357.513 40.9968 357.36C46.555 356.73 58.0018 358.532 63.0954 359.416L65.1007 364.493V364.493Z" fill="#2F2E41"/>
<path d="M36.597 297.18L50.0237 303.643C50.0237 303.643 64.2561 345.921 64.2561 348.075C64.2561 350.229 68.2841 351.575 65.8673 353.999C63.4505 356.423 70.3656 358.475 66.6395 360.411C62.9134 362.347 39.6693 372.936 37.0847 371.981C29.9561 369.347 37.3868 359.67 37.3868 359.67C37.3868 359.67 32.0319 355.345 32.8375 353.191C33.6431 351.037 28.0039 309.837 28.0039 309.837L36.597 297.18H36.597Z" fill="#E6E6E6"/>
<path d="M77.5096 334.433C80.8419 333.446 84.0509 334.37 84.677 336.497C85.3032 338.623 83.1096 341.147 79.776 342.134C78.4498 342.547 77.0443 342.635 75.6772 342.391L61.5057 346.395L59.7737 339.686L73.9281 336.451C74.9441 335.501 76.1722 334.81 77.5096 334.433H77.5096Z" fill="#FFB6B6"/>
<path d="M52.4439 310.657L50.2227 337.303L70.1185 337.518L73.9798 343.48C73.9798 343.48 49.865 357.482 42.624 350.328C35.383 343.173 32.1612 313.066 38.599 307.913C45.0369 302.76 52.4439 310.657 52.4439 310.657Z" fill="#E6E6E6"/>
<path d="M48.5081 297.892C54.8605 297.892 60.01 292.728 60.01 286.358C60.01 279.988 54.8605 274.824 48.5081 274.824C42.1558 274.824 37.0062 279.988 37.0062 286.358C37.0062 292.728 42.1558 297.892 48.5081 297.892Z" fill="#FFB6B6"/>
<path d="M42.3044 286.403C42.3044 286.403 44.1157 283.406 45.1119 281.863C46.1082 280.319 46.1082 278.057 46.1082 278.057C46.1082 278.057 55.3459 277.866 58.4252 280.5C61.5044 283.134 63.678 273.416 60.6893 270.056C60.6893 270.056 59.4214 271.509 59.6931 272.054L59.9648 272.599C59.9648 272.599 58.4252 266.423 53.9874 265.243C53.9874 265.243 51.5187 266.521 52.2097 267.244C52.9006 267.967 46.9233 262.881 45.1119 265.878C45.1119 265.878 40.6742 265.788 41.2176 267.422L40.9459 268.421C40.9459 268.421 37.1421 267.241 36.8704 270.056C36.8704 270.056 38.2289 270.056 38.9534 270.783C39.6779 271.509 36.327 273.598 36.327 273.598C36.327 273.598 32.4327 284.315 37.6855 288.674C37.6855 288.674 37.7308 283.452 39.8138 284.723C41.8968 285.995 42.3044 286.403 42.3044 286.403Z" fill="#2F2E41"/>
<path d="M53.2501 293.215L52.8372 294.305L55.9345 294.395L56.141 293.396L53.2501 293.215Z" fill="#2F2E41"/>
<path d="M56.3476 289.31C56.3476 289.31 51.7015 288.038 48.9139 291.853L48.2944 292.579C48.2944 292.579 42.4094 285.949 42.9256 283.497L41.6867 283.588L40.4478 289.945C40.4478 289.945 44.3711 296.757 49.8431 297.029C49.8431 297.029 55.1086 298.301 56.2443 296.121C57.38 293.941 59.3353 290.727 59.3353 290.727L56.3476 289.31H56.3476ZM55.5025 295.394H52.4242C51.7015 295.394 49.8431 292.761 49.8431 292.761C50.8755 291.126 53.9729 291.035 53.9729 291.035H57.3365L57.5865 292.034L55.5025 295.394H55.5025Z" fill="#2F2E41"/>
<path d="M280.556 467.34L275.506 466.245L277.313 446.19L284.766 447.806L280.556 467.34Z" fill="#A0616A"/>
<path d="M263.278 463.476C263.064 463.707 262.796 464.547 262.73 464.855C262.525 465.805 263.127 466.74 264.074 466.946L279.714 470.334C280.359 470.474 280.996 470.062 281.135 469.415L281.276 468.762C281.276 468.762 282.473 466.967 281.401 464.203C281.401 464.203 279.013 465.668 276.694 462.061L276.163 460.287L268.851 463.55L265.257 463.224C264.471 463.152 263.816 462.896 263.279 463.476L263.278 463.476Z" fill="#2F2E41"/>
<path d="M271.523 465.805L267.31 462.806L276.84 445.082L283.058 449.508L271.523 465.805Z" fill="#A0616A"/>
<path d="M257.155 455.436C256.867 455.564 256.292 456.23 256.109 456.488C255.549 457.28 255.735 458.377 256.525 458.939L269.573 468.226C270.112 468.609 270.859 468.482 271.241 467.942L271.627 467.397C271.627 467.397 273.431 466.219 273.53 463.255C273.53 463.255 270.76 463.66 270.044 459.428L270.252 457.588L262.249 457.703L259.073 455.985C258.379 455.609 257.877 455.115 257.155 455.436L257.155 455.436V455.436Z" fill="#2F2E41"/>
<path d="M332.219 366.655C332.219 366.655 340.076 377.367 324.363 389.41L292.281 379.13L303.739 355.165L313.887 349.585L332.219 366.655Z" fill="#2F2E41"/>
<path d="M292.281 379.13L279.841 403.422L271.984 453.977L281.805 454.634L291.626 406.705L308.977 380.771L296.864 375.19" fill="#2F2E41"/>
<path d="M324.363 381.779V389.41L302.102 413.927C302.102 413.927 302.102 432.311 293.59 440.846L283.769 455.947L275.258 451.351L287.698 407.362L309.959 378.473L324.363 381.779Z" fill="#2F2E41"/>
<path d="M308.544 306.13L311.92 322.162L324.79 319.008C324.79 319.008 318.428 305.74 319.694 300.483L308.544 306.13Z" fill="#A0616A"/>
<path opacity="0.1" d="M308.544 306.13L311.92 322.162L324.79 319.008C324.79 319.008 318.428 305.74 319.694 300.483L308.544 306.13Z" fill="black"/>
<path d="M320.762 308.55L310.941 313.146C310.941 313.146 305.888 316.243 305.796 318.305C305.703 320.368 306.358 330.216 306.358 330.216C306.358 330.216 302.429 334.156 305.048 342.034L303.739 355.165L333.202 370.923L330.583 343.347L331.892 317.742L320.762 308.55Z" fill="#E6E6E6"/>
<path d="M329.577 383.267C328.427 385.913 326.134 387.462 324.455 386.728C322.776 385.994 322.348 383.255 323.498 380.608C323.944 379.545 324.636 378.604 325.518 377.864L330.532 366.716L335.698 369.186L330.208 379.914C330.268 381.066 330.051 382.216 329.577 383.267V383.267Z" fill="#A0616A"/>
<path d="M324.363 319.383C324.363 319.383 331.565 314.787 334.184 320.04C336.803 325.292 342.695 352.211 342.695 352.211L334.184 377.817L326.327 374.534L333.202 346.977L324.363 319.383Z" fill="#E6E6E6"/>
<path d="M287.451 379.134C285.41 381.169 282.708 381.762 281.417 380.459C280.126 379.157 280.734 376.452 282.776 374.416C283.581 373.592 284.57 372.973 285.663 372.611L294.419 364.099L298.314 368.305L289.269 376.25C288.901 377.343 288.278 378.332 287.451 379.134Z" fill="#A0616A"/>
<path d="M306.073 317.817C306.073 317.817 318.629 317.302 319.134 323.152C319.639 329.003 311.055 355.108 311.055 355.108L293.736 375.769L287.637 369.814L304.153 346.735L306.073 317.817Z" fill="#E6E6E6"/>
<path d="M342.327 387.151L262.038 374.165C260.712 373.951 259.806 372.694 260.02 371.363C260.234 370.033 261.488 369.125 262.815 369.34L343.103 382.326C344.43 382.541 345.335 383.797 345.121 385.128C344.907 386.458 343.654 387.366 342.327 387.151V387.151Z" fill="#8257E5"/>
<path d="M238.123 373.503C241.42 373.503 244.093 370.822 244.093 367.516C244.093 364.209 241.42 361.529 238.123 361.529C234.825 361.529 232.152 364.209 232.152 367.516C232.152 370.822 234.825 373.503 238.123 373.503Z" fill="#8257E5"/>
<path d="M235.883 377.261L236.094 375.947C240.969 376.736 245.575 373.4 246.361 368.511C247.148 363.623 243.821 359.004 238.946 358.216L239.158 356.902C244.755 357.808 248.574 363.11 247.671 368.723C246.768 374.336 241.48 378.166 235.883 377.261Z" fill="#3F3D56"/>
<path d="M309.831 309.538C315.292 309.538 319.719 305.098 319.719 299.622C319.719 294.146 315.292 289.706 309.831 289.706C304.37 289.706 299.943 294.146 299.943 299.622C299.943 305.098 304.37 309.538 309.831 309.538Z" fill="#A0616A"/>
<path d="M315.675 299.622C315.675 299.622 309.502 294.003 305.546 295.986C301.591 297.969 299.613 299.291 299.613 299.291C299.613 299.291 296.317 294.334 301.262 290.037C301.262 290.037 291.198 285.628 298.537 278.743C305.876 271.858 312.468 274.502 312.468 274.502C312.468 274.502 321.367 278.468 315.105 286.401C315.105 286.401 324.228 292.203 319.502 301.697C319.502 301.697 319.06 295.656 317.742 297.308C316.423 298.961 315.675 299.622 315.675 299.622V299.622Z" fill="#2F2E41"/>
<path d="M111.472 333.606C107.692 324.286 103.912 314.967 100.132 305.647C99.6101 304.36 97.9747 304.314 97.4651 305.647C93.7302 315.418 91.2895 325.613 90.1161 336.009C89.9163 337.779 92.6837 337.765 92.882 336.009C93.3411 331.941 94.0228 327.903 94.8979 323.909C98.0128 324.073 101.153 323.722 104.159 322.888C105.708 326.706 107.257 330.525 108.805 334.343C109.467 335.975 112.144 335.261 111.472 333.606H111.472ZM95.5251 321.167C96.4567 317.343 97.5736 313.564 98.8695 309.847L103.109 320.298C100.626 320.951 98.0864 321.242 95.5251 321.167Z" fill="white"/>
<path d="M116.803 335.937C118.338 335.937 119.583 334.689 119.583 333.149C119.583 331.61 118.338 330.362 116.803 330.362C115.268 330.362 114.024 331.61 114.024 333.149C114.024 334.689 115.268 335.937 116.803 335.937Z" fill="white"/>
<path d="M87.6172 311.315C89.1523 311.315 90.3968 310.067 90.3968 308.528C90.3968 306.988 89.1523 305.74 87.6172 305.74C86.082 305.74 84.8375 306.988 84.8375 308.528C84.8375 310.067 86.082 311.315 87.6172 311.315Z" fill="white"/>
</g>
<path d="M15.4216 29.92C15.4216 27.1467 16.0216 24.68 17.2216 22.52C18.4216 20.3333 20.0882 18.64 22.2216 17.44C24.3816 16.2133 26.8216 15.6 29.5416 15.6C32.8749 15.6 35.7282 16.48 38.1016 18.24C40.4749 20 42.0616 22.4 42.8616 25.44H35.3416C34.7816 24.2667 33.9816 23.3733 32.9416 22.76C31.9282 22.1467 30.7682 21.84 29.4616 21.84C27.3549 21.84 25.6482 22.5733 24.3416 24.04C23.0349 25.5067 22.3816 27.4667 22.3816 29.92C22.3816 32.3733 23.0349 34.3333 24.3416 35.8C25.6482 37.2667 27.3549 38 29.4616 38C30.7682 38 31.9282 37.6933 32.9416 37.08C33.9816 36.4667 34.7816 35.5733 35.3416 34.4H42.8616C42.0616 37.44 40.4749 39.84 38.1016 41.6C35.7282 43.3333 32.8749 44.2 29.5416 44.2C26.8216 44.2 24.3816 43.6 22.2216 42.4C20.0882 41.1733 18.4216 39.48 17.2216 37.32C16.0216 35.16 15.4216 32.6933 15.4216 29.92ZM57.2103 44.32C55.0236 44.32 53.0503 43.8533 51.2903 42.92C49.557 41.9867 48.1836 40.6533 47.1703 38.92C46.1836 37.1867 45.6903 35.16 45.6903 32.84C45.6903 30.5467 46.197 28.5333 47.2103 26.8C48.2236 25.04 49.6103 23.6933 51.3703 22.76C53.1303 21.8267 55.1036 21.36 57.2903 21.36C59.477 21.36 61.4503 21.8267 63.2103 22.76C64.9703 23.6933 66.357 25.04 67.3703 26.8C68.3836 28.5333 68.8903 30.5467 68.8903 32.84C68.8903 35.1333 68.3703 37.16 67.3303 38.92C66.317 40.6533 64.917 41.9867 63.1303 42.92C61.3703 43.8533 59.397 44.32 57.2103 44.32ZM57.2103 38.4C58.517 38.4 59.6236 37.92 60.5303 36.96C61.4636 36 61.9303 34.6267 61.9303 32.84C61.9303 31.0533 61.477 29.68 60.5703 28.72C59.6903 27.76 58.597 27.28 57.2903 27.28C55.957 27.28 54.8503 27.76 53.9703 28.72C53.0903 29.6533 52.6503 31.0267 52.6503 32.84C52.6503 34.6267 53.077 36 53.9303 36.96C54.8103 37.92 55.9036 38.4 57.2103 38.4ZM86.1191 21.44C88.7324 21.44 90.8124 22.2933 92.3591 24C93.9324 25.68 94.7191 28 94.7191 30.96V44H87.9191V31.88C87.9191 30.3867 87.5324 29.2267 86.7591 28.4C85.9857 27.5733 84.9457 27.16 83.6391 27.16C82.3324 27.16 81.2924 27.5733 80.5191 28.4C79.7457 29.2267 79.3591 30.3867 79.3591 31.88V44H72.5191V21.68H79.3591V24.64C80.0524 23.6533 80.9857 22.88 82.1591 22.32C83.3324 21.7333 84.6524 21.44 86.1191 21.44ZM120.512 32.48C120.512 33.12 120.472 33.7867 120.392 34.48H104.912C105.019 35.8667 105.459 36.9333 106.232 37.68C107.032 38.4 108.006 38.76 109.152 38.76C110.859 38.76 112.046 38.04 112.712 36.6H119.992C119.619 38.0667 118.939 39.3867 117.952 40.56C116.992 41.7333 115.779 42.6533 114.312 43.32C112.846 43.9867 111.206 44.32 109.392 44.32C107.206 44.32 105.259 43.8533 103.552 42.92C101.846 41.9867 100.512 40.6533 99.5522 38.92C98.5922 37.1867 98.1122 35.16 98.1122 32.84C98.1122 30.52 98.5789 28.4933 99.5122 26.76C100.472 25.0267 101.806 23.6933 103.512 22.76C105.219 21.8267 107.179 21.36 109.392 21.36C111.552 21.36 113.472 21.8133 115.152 22.72C116.832 23.6267 118.139 24.92 119.072 26.6C120.032 28.28 120.512 30.24 120.512 32.48ZM113.512 30.68C113.512 29.5067 113.112 28.5733 112.312 27.88C111.512 27.1867 110.512 26.84 109.312 26.84C108.166 26.84 107.192 27.1733 106.392 27.84C105.619 28.5067 105.139 29.4533 104.952 30.68H113.512ZM122.761 32.84C122.761 30.52 123.227 28.4933 124.161 26.76C125.121 25.0267 126.441 23.6933 128.121 22.76C129.827 21.8267 131.774 21.36 133.961 21.36C136.761 21.36 139.094 22.0933 140.961 23.56C142.854 25.0267 144.094 27.0933 144.681 29.76H137.401C136.787 28.0533 135.601 27.2 133.841 27.2C132.587 27.2 131.587 27.6933 130.841 28.68C130.094 29.64 129.721 31.0267 129.721 32.84C129.721 34.6533 130.094 36.0533 130.841 37.04C131.587 38 132.587 38.48 133.841 38.48C135.601 38.48 136.787 37.6267 137.401 35.92H144.681C144.094 38.5333 142.854 40.5867 140.961 42.08C139.067 43.5733 136.734 44.32 133.961 44.32C131.774 44.32 129.827 43.8533 128.121 42.92C126.441 41.9867 125.121 40.6533 124.161 38.92C123.227 37.1867 122.761 35.16 122.761 32.84ZM160.779 38.2V44H157.299C154.819 44 152.886 43.4 151.499 42.2C150.113 40.9733 149.419 38.9867 149.419 36.24V27.36H146.699V21.68H149.419V16.24H156.259V21.68H160.739V27.36H156.259V36.32C156.259 36.9867 156.419 37.4667 156.739 37.76C157.059 38.0533 157.593 38.2 158.339 38.2H160.779ZM185.629 32.48C185.629 33.12 185.589 33.7867 185.509 34.48H170.029C170.136 35.8667 170.576 36.9333 171.349 37.68C172.149 38.4 173.123 38.76 174.269 38.76C175.976 38.76 177.163 38.04 177.829 36.6H185.109C184.736 38.0667 184.056 39.3867 183.069 40.56C182.109 41.7333 180.896 42.6533 179.429 43.32C177.963 43.9867 176.323 44.32 174.509 44.32C172.323 44.32 170.376 43.8533 168.669 42.92C166.963 41.9867 165.629 40.6533 164.669 38.92C163.709 37.1867 163.229 35.16 163.229 32.84C163.229 30.52 163.696 28.4933 164.629 26.76C165.589 25.0267 166.923 23.6933 168.629 22.76C170.336 21.8267 172.296 21.36 174.509 21.36C176.669 21.36 178.589 21.8133 180.269 22.72C181.949 23.6267 183.256 24.92 184.189 26.6C185.149 28.28 185.629 30.24 185.629 32.48ZM178.629 30.68C178.629 29.5067 178.229 28.5733 177.429 27.88C176.629 27.1867 175.629 26.84 174.429 26.84C173.283 26.84 172.309 27.1733 171.509 27.84C170.736 28.5067 170.256 29.4533 170.069 30.68H178.629ZM206.438 27.12V32.8H188.838V27.12H206.438ZM221.521 44.32C219.574 44.32 217.841 43.9867 216.321 43.32C214.801 42.6533 213.601 41.7467 212.721 40.6C211.841 39.4267 211.348 38.12 211.241 36.68H218.001C218.081 37.4533 218.441 38.08 219.081 38.56C219.721 39.04 220.508 39.28 221.441 39.28C222.294 39.28 222.948 39.12 223.401 38.8C223.881 38.4533 224.121 38.0133 224.121 37.48C224.121 36.84 223.788 36.3733 223.121 36.08C222.454 35.76 221.374 35.4133 219.881 35.04C218.281 34.6667 216.948 34.28 215.881 33.88C214.814 33.4533 213.894 32.8 213.121 31.92C212.348 31.0133 211.961 29.8 211.961 28.28C211.961 27 212.308 25.84 213.001 24.8C213.721 23.7333 214.761 22.8933 216.121 22.28C217.508 21.6667 219.148 21.36 221.041 21.36C223.841 21.36 226.041 22.0533 227.641 23.44C229.268 24.8267 230.201 26.6667 230.441 28.96H224.121C224.014 28.1867 223.668 27.5733 223.081 27.12C222.521 26.6667 221.774 26.44 220.841 26.44C220.041 26.44 219.428 26.6 219.001 26.92C218.574 27.2133 218.361 27.6267 218.361 28.16C218.361 28.8 218.694 29.28 219.361 29.6C220.054 29.92 221.121 30.24 222.561 30.56C224.214 30.9867 225.561 31.4133 226.601 31.84C227.641 32.24 228.548 32.9067 229.321 33.84C230.121 34.7467 230.534 35.9733 230.561 37.52C230.561 38.8267 230.188 40 229.441 41.04C228.721 42.0533 227.668 42.8533 226.281 43.44C224.921 44.0267 223.334 44.32 221.521 44.32ZM255.786 32.48C255.786 33.12 255.746 33.7867 255.666 34.48H240.186C240.292 35.8667 240.732 36.9333 241.506 37.68C242.306 38.4 243.279 38.76 244.426 38.76C246.132 38.76 247.319 38.04 247.986 36.6H255.266C254.892 38.0667 254.212 39.3867 253.226 40.56C252.266 41.7333 251.052 42.6533 249.586 43.32C248.119 43.9867 246.479 44.32 244.666 44.32C242.479 44.32 240.532 43.8533 238.826 42.92C237.119 41.9867 235.786 40.6533 234.826 38.92C233.866 37.1867 233.386 35.16 233.386 32.84C233.386 30.52 233.852 28.4933 234.786 26.76C235.746 25.0267 237.079 23.6933 238.786 22.76C240.492 21.8267 242.452 21.36 244.666 21.36C246.826 21.36 248.746 21.8133 250.426 22.72C252.106 23.6267 253.412 24.92 254.346 26.6C255.306 28.28 255.786 30.24 255.786 32.48ZM248.786 30.68C248.786 29.5067 248.386 28.5733 247.586 27.88C246.786 27.1867 245.786 26.84 244.586 26.84C243.439 26.84 242.466 27.1733 241.666 27.84C240.892 28.5067 240.412 29.4533 240.226 30.68H248.786ZM266.511 32.84C266.511 30.52 266.977 28.4933 267.911 26.76C268.871 25.0267 270.191 23.6933 271.871 22.76C273.577 21.8267 275.524 21.36 277.711 21.36C280.511 21.36 282.844 22.0933 284.711 23.56C286.604 25.0267 287.844 27.0933 288.431 29.76H281.151C280.537 28.0533 279.351 27.2 277.591 27.2C276.337 27.2 275.337 27.6933 274.591 28.68C273.844 29.64 273.471 31.0267 273.471 32.84C273.471 34.6533 273.844 36.0533 274.591 37.04C275.337 38 276.337 38.48 277.591 38.48C279.351 38.48 280.537 37.6267 281.151 35.92H288.431C287.844 38.5333 286.604 40.5867 284.711 42.08C282.817 43.5733 280.484 44.32 277.711 44.32C275.524 44.32 273.577 43.8533 271.871 42.92C270.191 41.9867 268.871 40.6533 267.911 38.92C266.977 37.1867 266.511 35.16 266.511 32.84ZM302.249 44.32C300.063 44.32 298.089 43.8533 296.329 42.92C294.596 41.9867 293.223 40.6533 292.209 38.92C291.223 37.1867 290.729 35.16 290.729 32.84C290.729 30.5467 291.236 28.5333 292.249 26.8C293.263 25.04 294.649 23.6933 296.409 22.76C298.169 21.8267 300.143 21.36 302.329 21.36C304.516 21.36 306.489 21.8267 308.249 22.76C310.009 23.6933 311.396 25.04 312.409 26.8C313.423 28.5333 313.929 30.5467 313.929 32.84C313.929 35.1333 313.409 37.16 312.369 38.92C311.356 40.6533 309.956 41.9867 308.169 42.92C306.409 43.8533 304.436 44.32 302.249 44.32ZM302.249 38.4C303.556 38.4 304.663 37.92 305.569 36.96C306.503 36 306.969 34.6267 306.969 32.84C306.969 31.0533 306.516 29.68 305.609 28.72C304.729 27.76 303.636 27.28 302.329 27.28C300.996 27.28 299.889 27.76 299.009 28.72C298.129 29.6533 297.689 31.0267 297.689 32.84C297.689 34.6267 298.116 36 298.969 36.96C299.849 37.92 300.943 38.4 302.249 38.4ZM346.038 21.44C348.811 21.44 351.011 22.28 352.638 23.96C354.291 25.64 355.118 27.9733 355.118 30.96V44H348.318V31.88C348.318 30.44 347.931 29.3333 347.158 28.56C346.411 27.76 345.371 27.36 344.038 27.36C342.705 27.36 341.651 27.76 340.878 28.56C340.131 29.3333 339.758 30.44 339.758 31.88V44H332.958V31.88C332.958 30.44 332.571 29.3333 331.798 28.56C331.051 27.76 330.011 27.36 328.678 27.36C327.345 27.36 326.291 27.76 325.518 28.56C324.771 29.3333 324.398 30.44 324.398 31.88V44H317.558V21.68H324.398V24.48C325.091 23.5467 325.998 22.8133 327.118 22.28C328.238 21.72 329.505 21.44 330.918 21.44C332.598 21.44 334.091 21.8 335.398 22.52C336.731 23.24 337.771 24.2667 338.518 25.6C339.291 24.3733 340.345 23.3733 341.678 22.6C343.011 21.8267 344.465 21.44 346.038 21.44ZM138.768 98.2V104H135.288C132.808 104 130.874 103.4 129.488 102.2C128.101 100.973 127.408 98.9867 127.408 96.24V87.36H124.688V81.68H127.408V76.24H134.248V81.68H138.728V87.36H134.248V96.32C134.248 96.9867 134.408 97.4667 134.728 97.76C135.048 98.0533 135.581 98.2 136.328 98.2H138.768ZM152.738 104.32C150.551 104.32 148.578 103.853 146.818 102.92C145.084 101.987 143.711 100.653 142.698 98.92C141.711 97.1867 141.218 95.16 141.218 92.84C141.218 90.5467 141.724 88.5333 142.738 86.8C143.751 85.04 145.138 83.6933 146.898 82.76C148.658 81.8267 150.631 81.36 152.818 81.36C155.004 81.36 156.978 81.8267 158.738 82.76C160.498 83.6933 161.884 85.04 162.898 86.8C163.911 88.5333 164.418 90.5467 164.418 92.84C164.418 95.1333 163.898 97.16 162.858 98.92C161.844 100.653 160.444 101.987 158.658 102.92C156.898 103.853 154.924 104.32 152.738 104.32ZM152.738 98.4C154.044 98.4 155.151 97.92 156.058 96.96C156.991 96 157.458 94.6267 157.458 92.84C157.458 91.0533 157.004 89.68 156.098 88.72C155.218 87.76 154.124 87.28 152.818 87.28C151.484 87.28 150.378 87.76 149.498 88.72C148.618 89.6533 148.178 91.0267 148.178 92.84C148.178 94.6267 148.604 96 149.458 96.96C150.338 97.92 151.431 98.4 152.738 98.4ZM166.686 92.8C166.686 90.5067 167.113 88.4933 167.966 86.76C168.846 85.0267 170.033 83.6933 171.526 82.76C173.02 81.8267 174.686 81.36 176.526 81.36C177.993 81.36 179.326 81.6667 180.526 82.28C181.753 82.8933 182.713 83.72 183.406 84.76V74.4H190.246V104H183.406V100.8C182.766 101.867 181.846 102.72 180.646 103.36C179.473 104 178.1 104.32 176.526 104.32C174.686 104.32 173.02 103.853 171.526 102.92C170.033 101.96 168.846 100.613 167.966 98.88C167.113 97.12 166.686 95.0933 166.686 92.8ZM183.406 92.84C183.406 91.1333 182.926 89.7867 181.966 88.8C181.033 87.8133 179.886 87.32 178.526 87.32C177.166 87.32 176.006 87.8133 175.046 88.8C174.113 89.76 173.646 91.0933 173.646 92.8C173.646 94.5067 174.113 95.8667 175.046 96.88C176.006 97.8667 177.166 98.36 178.526 98.36C179.886 98.36 181.033 97.8667 181.966 96.88C182.926 95.8933 183.406 94.5467 183.406 92.84ZM205.355 104.32C203.168 104.32 201.195 103.853 199.435 102.92C197.702 101.987 196.328 100.653 195.315 98.92C194.328 97.1867 193.835 95.16 193.835 92.84C193.835 90.5467 194.342 88.5333 195.355 86.8C196.368 85.04 197.755 83.6933 199.515 82.76C201.275 81.8267 203.248 81.36 205.435 81.36C207.622 81.36 209.595 81.8267 211.355 82.76C213.115 83.6933 214.502 85.04 215.515 86.8C216.528 88.5333 217.035 90.5467 217.035 92.84C217.035 95.1333 216.515 97.16 215.475 98.92C214.462 100.653 213.062 101.987 211.275 102.92C209.515 103.853 207.542 104.32 205.355 104.32ZM205.355 98.4C206.662 98.4 207.768 97.92 208.675 96.96C209.608 96 210.075 94.6267 210.075 92.84C210.075 91.0533 209.622 89.68 208.715 88.72C207.835 87.76 206.742 87.28 205.435 87.28C204.102 87.28 202.995 87.76 202.115 88.72C201.235 89.6533 200.795 91.0267 200.795 92.84C200.795 94.6267 201.222 96 202.075 96.96C202.955 97.92 204.048 98.4 205.355 98.4ZM229.744 104.32C227.797 104.32 226.064 103.987 224.544 103.32C223.024 102.653 221.824 101.747 220.944 100.6C220.064 99.4267 219.57 98.12 219.464 96.68H226.224C226.304 97.4533 226.664 98.08 227.304 98.56C227.944 99.04 228.73 99.28 229.664 99.28C230.517 99.28 231.17 99.12 231.624 98.8C232.104 98.4533 232.344 98.0133 232.344 97.48C232.344 96.84 232.01 96.3733 231.344 96.08C230.677 95.76 229.597 95.4133 228.104 95.04C226.504 94.6667 225.17 94.28 224.104 93.88C223.037 93.4533 222.117 92.8 221.344 91.92C220.57 91.0133 220.184 89.8 220.184 88.28C220.184 87 220.53 85.84 221.224 84.8C221.944 83.7333 222.984 82.8933 224.344 82.28C225.73 81.6667 227.37 81.36 229.264 81.36C232.064 81.36 234.264 82.0533 235.864 83.44C237.49 84.8267 238.424 86.6667 238.664 88.96H232.344C232.237 88.1867 231.89 87.5733 231.304 87.12C230.744 86.6667 229.997 86.44 229.064 86.44C228.264 86.44 227.65 86.6 227.224 86.92C226.797 87.2133 226.584 87.6267 226.584 88.16C226.584 88.8 226.917 89.28 227.584 89.6C228.277 89.92 229.344 90.24 230.784 90.56C232.437 90.9867 233.784 91.4133 234.824 91.84C235.864 92.24 236.77 92.9067 237.544 93.84C238.344 94.7467 238.757 95.9733 238.784 97.52C238.784 98.8267 238.41 100 237.664 101.04C236.944 102.053 235.89 102.853 234.504 103.44C233.144 104.027 231.557 104.32 229.744 104.32ZM251.968 74.92L251.168 94.08H245.368L244.568 74.92H251.968ZM248.368 104.32C247.168 104.32 246.182 103.973 245.408 103.28C244.662 102.56 244.288 101.68 244.288 100.64C244.288 99.5733 244.662 98.68 245.408 97.96C246.182 97.24 247.168 96.88 248.368 96.88C249.542 96.88 250.502 97.24 251.248 97.96C252.022 98.68 252.408 99.5733 252.408 100.64C252.408 101.68 252.022 102.56 251.248 103.28C250.502 103.973 249.542 104.32 248.368 104.32Z" fill="#E6E6E6"/>
<defs>
<clipPath id="clip0_6_132">
<rect width="380" height="300" fill="white" transform="translate(0 172)"/>
</clipPath>
</defs>
</svg>
